# xmcd
#
# Track frame offsets:
#	150
#	10927
#	21030
#	32372
#	45597
#	59832
#	71605
#	85182
#	97545
#	108147
#
# Disc length: 1584 seconds
#
# Revision: 0
# Processed by: cddbd v1.5.2PL0 Copyright (c) Steve Scherf et al.
# Submitted via: EZCDAudioConverter 3.1.7.1
#
DISCID=6c062e0a
DTITLE=Sandy Ellwanger
DYEAR=1990
DGENRE=Country
TTITLE0=Walkin' In My Shoes
TTITLE1=Give Me Just A Little More Time
TTITLE2=Don't Call Me I'll Call You
TTITLE3=Go Ahead And Keep The Key
TTITLE4=Change Of Heart
TTITLE5=Heart In Chains
TTITLE6=I Just Came In Here (To Let A Little Hurt Out)
TTITLE7=What Kind Of Girl Do You Think I Am
TTITLE8=You Won't Have To Leave Me ('Cause I'm Gone)
TTITLE9=I Don't Need Flowers
EXTD=
EXTT0=
EXTT1=
EXTT2=
EXTT3=
EXTT4=
EXTT5=
EXTT6=
EXTT7=
EXTT8=
EXTT9=
PLAYORDER=
